<svg height="40" viewBox="0 0 151 40" width="151" xmlns="http://www.w3.org/2000/svg" xmlns:xlink="http://www.w3.org/1999/xlink"><defs><path id="a" d="m52.441 21.095c-1.0006717 0-1.9031626-.2279977-2.7075-.684s-1.4344977-1.0861626-1.8905-1.8905-.684-1.7068283-.684-2.7075.2279977-1.9063293.684-2.717 1.0861626-1.4439977 1.8905-1.9 1.7068283-.684 2.7075-.684 1.899996.2279977 2.698.684 1.4281644 1.0893293 1.8905 1.9.6935 1.7163283.6935 2.717-.2279977 1.9031626-.684 2.7075-1.0861626 1.4344977-1.8905 1.8905-1.7068283.684-2.7075.684zm0-1.33c.7346703 0 1.3933304-.1709983 1.976-.513s1.038665-.8138303 1.368-1.4155.494-1.2761629.494-2.0235c0-.7600038-.164665-1.4408303-.494-2.0425s-.7853304-1.0734983-1.368-1.4155-1.2413297-.513-1.976-.513c-.7220036 0-1.3774971.1709983-1.9665.513s-1.0513317.8138303-1.387 1.4155-.5035 1.2824962-.5035 2.0425c0 .7473371.1678317 1.4218303.5035 2.0235s.7979971 1.0734983 1.387 1.4155 1.2444964.513 1.9665.513zm9.177 1.235c-.2153344 0-.392666-.069666-.532-.209s-.209-.3166656-.209-.532v-8.911c0-.2153344.069666-.392666.209-.532s.3166656-.209.532-.209.3894993.069666.5225.209.1995.3166656.1995.532v8.911c0 .2153344-.0664993.392666-.1995.532s-.3071656.209-.5225.209zm-.019-12.369c-.2913348 0-.5351657-.10133232-.7315-.304s-.2945-.44966521-.2945-.741c0-.30400152.1013323-.55099905.304-.741s.4496652-.285.741-.285c.2786681 0 .5193323.09499905.722.285s.304.43699848.304.741c0 .29133479-.1013323.53833232-.304.741s-.4496652.304-.741.304zm9.196 12.464c-1.0006717 0-1.9031626-.2279977-2.7075-.684s-1.4344977-1.0861626-1.8905-1.8905-.684-1.7068283-.684-2.7075.2279977-1.9063293.684-2.717 1.0861626-1.4439977 1.8905-1.9 1.7068283-.684 2.7075-.684 1.899996.2279977 2.698.684 1.4281644 1.0893293 1.8905 1.9.6935 1.7163283.6935 2.717-.2279977 1.9031626-.684 2.7075-1.0861626 1.4344977-1.8905 1.8905-1.7068283.684-2.7075.684zm0-1.33c.7346703 0 1.3933304-.1709983 1.976-.513s1.038665-.8138303 1.368-1.4155.494-1.2761629.494-2.0235c0-.7600038-.164665-1.4408303-.494-2.0425s-.7853304-1.0734983-1.368-1.4155-1.2413297-.513-1.976-.513c-.7220036 0-1.3774971.1709983-1.9665.513s-1.0513317.8138303-1.387 1.4155-.5035 1.2824962-.5035 2.0425c0 .7473371.1678317 1.4218303.5035 2.0235s.7979971 1.0734983 1.387 1.4155 1.2444964.513 1.9665.513zm8.474 1.539c-.3040015 0-.5636656-.1076656-.779-.323s-.323-.4749985-.323-.779c0-.3166683.1108322-.5826656.3325-.798s.4781652-.323.7695-.323c.3040015 0 .5636656.1108322.779.3325s.323.4844985.323.7885-.1076656.5636656-.323.779-.4749985.323-.779.323zm13.756-10.146c.0126667.0380002.019.0949996.019.171v4.465c0 .9880049-.2311644 1.8873293-.6935 2.698s-1.0956626 1.4471644-1.9 1.9095-1.7004951.6935-2.6885.6935-1.8841626-.2311644-2.6885-.6935-1.4376644-1.0988293-1.9-1.9095-.6935-1.7099951-.6935-2.698.2248311-1.8841626.6745-2.6885 1.0639961-1.4376644 1.843-1.9 1.6498285-.6935 2.6125-.6935c.8233374 0 1.5769966.1741649 2.261.5225s1.2476644.826497 1.691 1.4345v-5.567c0-.21533441.069666-.39266597.209-.532s.3166656-.209.532-.209.3894993.06966597.5225.209.1995.31666559.1995.532zm-5.263 8.607c.7220036 0 1.3743304-.1741649 1.957-.5225s1.0418317-.8233303 1.3775-1.425.5035-1.2761629.5035-2.0235c0-.2153344-.0063333-.3736662-.019-.475-.0126667-.0253335-.019-.0569998-.019-.095-.1266673-.9880049-.5414965-1.7986635-1.2445-2.432s-1.5548283-.95-2.5555-.95c-.7220036 0-1.3774971.1709983-1.9665.513s-1.0513317.8138303-1.387 1.4155-.5035 1.2761629-.5035 2.0235.1678317 1.4218303.5035 2.0235.7979971 1.0766649 1.387 1.425 1.2444964.5225 1.9665.5225zm13.129-9.253c.937338 0 1.766996.2184978 2.489.6555s1.282498 1.0418295 1.6815 1.8145.5985 1.6529951.5985 2.641c0 .2026677-.063333.3641661-.19.4845s-.291332.1805-.494.1805h-7.676c.1013338 1.0386719.5066631 1.8809968 1.216 2.527s1.595995.969 2.66.969c.456002 0 .915164-.0791659 1.3775-.2375s.832832-.3578321 1.1115-.5985c.164667-.1266673.335666-.19.513-.19.139334 0 .278666.0506662.418.152.164667.1520008.247.3229991.247.513 0 .1646675-.069666.3103327-.209.437-.418002.3546684-.949997.6491655-1.596.8835s-1.266664.3515-1.862.3515c-1.013338 0-1.918996-.2248311-2.717-.6745s-1.4218311-1.0766626-1.8715-1.881-.6745-1.7131616-.6745-2.7265c0-1.0260051.2121645-1.9411626.6365-2.7455s1.0133296-1.4313311 1.767-1.881 1.6118285-.6745 2.5745-.6745zm0 1.311c-.9626715 0-1.7606635.2976637-2.394.893s-1.019666 1.3806618-1.159 2.356h6.954c-.101334-.9753382-.455997-1.7606637-1.064-2.356s-1.386995-.893-2.337-.893zm14.953-1.159c.266001.1266673.399.3293319.399.608 0 .0760004-.019.1646662-.057.266l-4.161 8.968c-.164667.329335-.405332.494-.722.494-.304002 0-.531999-.164665-.684-.494l-4.218-8.949c-.038-.0760004-.057-.1646662-.057-.266 0-.2660013.139332-.468666.418-.608.088667-.0506669.189999-.076.304-.076.126667 0 .243833.0316664.3515.095.107667.0633337.186833.1583327.2375.285l3.648 7.904 3.61-7.904c.050667-.1266673.132999-.224833.247-.2945s.240666-.1045.38-.1045c.114001 0 .215333.0253331.304.076z"/><path id="b" d="m47.12 28.43h7.79v.7h-1.67v2.65h2.19v.69h-2.19v4.43h-.73v-4.43h-2.89c-.09 1.03-.28 1.88-.58 2.56-.38.84-1.01 1.49-1.89 1.95l-.39-.62c.81-.46 1.38-1.07 1.7-1.83.21-.58.35-1.26.43-2.06h-2.31v-.69h2.35c0-.13.01-.25.01-.35v-2.3h-1.82zm2.56.7v2.3c0 .12-.01.24-.01.35h2.84v-2.65zm9.298182 1.77.79-2.78.71.12-.57 1.97h1.75c.2-.78.36-1.59.48-2.45l.73.09c-.13.84-.29 1.62-.47 2.36h4.68v.69h-4.87c-.12.4-.24.78-.38 1.14h4.09v.62c-.27.86-.81 1.64-1.63 2.34.81.48 1.8.92 2.96 1.32l-.37.67c-1.28-.47-2.34-.98-3.18-1.53-.82.58-1.84 1.1-3.05 1.57l-.38-.67c1.12-.41 2.05-.86 2.8-1.35-.78-.6-1.33-1.25-1.66-1.95-.73 1.58-1.67 2.83-2.81 3.76l-.37-.66c1.46-1.28 2.53-3.03 3.23-5.26zm2.97 1.8c.34.68.91 1.31 1.71 1.89.74-.58 1.25-1.21 1.53-1.89zm2.6-4.86c.72.55 1.31 1.1 1.79 1.65l-.51.51c-.42-.53-1.01-1.09-1.76-1.69zm6.548182 1.03h2.74v-1.06h.74v1.06h2.36v.67h-2.36v1.19h1.26c.94-.67 1.77-1.43 2.48-2.27l.55.4c-.59.7-1.22 1.33-1.89 1.87h2.14v.68h-3.05c-.15.1-.3.19-.45.29-.46.28-.99.55-1.57.82h3.78v4.5h-.72v-.45h-4.33v.45h-.73v-3.68c-.54.2-1.1.39-1.68.58l-.3-.67c1.71-.4 3.27-1.02 4.69-1.84h-4.55v-.68h3.63v-1.19h-2.74zm1.68 5.97v1.09h4.33v-1.09zm4.33-.64v-1.05h-4.33v1.05zm9.058182.53c-.32-.51-.64-.99-.95-1.44-.36.98-.8 1.82-1.31 2.52l-.46-.56c.52-.74.95-1.62 1.29-2.63-.48-.64-.95-1.22-1.41-1.75l.45-.43c.37.39.77.86 1.19 1.42.19-.7.35-1.46.47-2.26l.66.12c-.16 1.03-.37 1.97-.63 2.82.38.52.78 1.09 1.18 1.71zm2.93.46c-.34-.59-.68-1.14-1.01-1.66-.4.98-.87 1.82-1.41 2.52l-.46-.55c.56-.76 1.03-1.65 1.4-2.67-.46-.68-.91-1.3-1.37-1.86l.45-.43c.36.41.76.91 1.18 1.51.22-.75.39-1.56.53-2.42l.68.12c-.18 1.11-.42 2.11-.72 3.01.38.58.79 1.23 1.22 1.95zm.46 1.75h-1.01l-.19-.7.96.03c.28 0 .42-.14.42-.41v-6.93h-6.56v8.05h-.71v-8.74h7.98v7.78c0 .61-.3.92-.89.92zm10.348182-9.12h.73v3.2h1.9v.69h-1.9v4.19h2.19v.7h-6.3v-.7h1.16v-5.96h.72v5.96h1.5zm-2.88 6.27v.75c-1 .36-2.09.67-3.25.91l-.19-.76c.46-.08.91-.17 1.35-.27v-3.61h-1.25v-.7h1.25v-2.54h.74v2.54h1.23v.7h-1.23v3.41c.46-.13.91-.27 1.35-.43zm8.558182-.72h6.09v-.63h.72v.63h2.2v.7h-2.2v2.12c0 .56-.31.84-.91.84h-1.28l-.16-.71c.42.03.81.05 1.19.05.29 0 .44-.12.44-.36v-1.94h-6.09zm7.5-5.15v2.38h-5.73v.72c0 .27.15.41.43.41h5.35c.2-.01.33-.08.41-.2.06-.11.12-.37.16-.79l.68.22c-.05.45-.12.77-.2.97-.14.3-.42.45-.84.47h-5.82c-.6 0-.89-.28-.89-.82v-3.36zm-5.73 1.72h5.01v-1.07h-5.01zm.53 4.43c.67.52 1.23 1.05 1.69 1.57l-.54.54c-.4-.51-.96-1.05-1.66-1.62zm13.778182-5.25h1.89c-.14-.44-.3-.85-.48-1.22l.75-.12c.16.39.31.84.47 1.34h1.91v.71h-4.54zm-4.31 3.07h.68v-3.33h1.1c.13-.36.23-.72.3-1.09l.75.1c-.08.36-.18.69-.31.99h1.37v7.23c0 .56-.27.84-.8.84h-.84l-.18-.67c.29.02.56.04.81.04.22 0 .34-.15.34-.45v-3h-1.89c-.04 1.72-.31 3.11-.81 4.18l-.56-.51c.44-.98.68-2.2.71-3.67h-.67zm3.22 0v-2.66h-1.88v2.66zm-1.08-2.15c.28.44.52.94.74 1.51l-.54.14c-.19-.51-.43-1-.72-1.48zm.03 3.36c.26.54.5 1.15.72 1.85l-.58.16c-.18-.64-.42-1.25-.7-1.83zm1.82 3.13c.37-.46.63-.96.79-1.48.13-.47.2-1.15.2-2.03v-2.09h2.79v5.1c0 .13.06.2.19.2h.24c.07 0 .13-.02.19-.04.04-.02.08-.06.1-.1.05-.09.08-.55.08-1.39l.65.2c0 .57-.02 1.01-.06 1.31-.04.25-.12.43-.25.53-.13.08-.34.12-.62.12h-.35c-.57 0-.85-.26-.85-.76v-4.51h-1.43v1.43c0 .89-.08 1.63-.24 2.23s-.45 1.19-.88 1.77z"/></defs><g fill="none" fill-rule="nonzero"><g transform="translate(4 2)"><path d="m29.3800177 23.2274257 1.5566502.8831033c1.4133355.8017994 1.4188751 2.8198023.0099625 3.6292102l-13.8867925 7.9778393c-.6554705.376562-1.4642053.376562-2.1196758 0l-13.88679245-7.9778393c-1.40891265-.8094079-1.40337306-2.8274108.00996248-3.6292102l1.55665022-.8831033 11.88559915 6.8281715c.9253622.5316124 2.0634748.5316124 2.988837 0z" fill="#e5e5e5"/><path d="m29.3800177 15.2495864 1.5566502.8831032c1.4133355.8017994 1.4188751 2.8198024.0099625 3.6292102l-13.8867925 7.9778394c-.6554705.376562-1.4642053.376562-2.1196758 0l-13.88679245-7.9778394c-1.40891265-.8094078-1.40337306-2.8274108.00996248-3.6292102l1.55665022-.8831032 11.88559915 6.8281715c.9253622.5316124 2.0634748.5316124 2.988837 0z" fill="#e5e5e5"/><path d="m14.9501246.27673396c.6504003-.36897861 1.4493505-.36897861 2.0997508 0l13.8867925 7.87811634c1.4133355.8017994 1.4188751 2.8198024.0099625 3.6292102l-13.8867925 7.9778393c-.6554705.376562-1.4642053.376562-2.1196758 0l-13.88679245-7.9778393c-1.40891265-.8094078-1.40337306-2.8274108.00996248-3.6292102z" fill="#fcb327"/></g><g><use fill="#fff" xlink:href="#a"/><use fill="#e5e5e5" xlink:href="#a"/></g><g><use fill="#fff" xlink:href="#b"/><use fill="#e5e5e5" xlink:href="#b"/></g></g></svg>