<svg height="40" viewBox="0 0 151 40" width="151" xmlns="http://www.w3.org/2000/svg"><defs>
  <style type="text/css">
    @import url('https://fonts.lug.ustc.edu.cn/css?family=Comfortaa:400,700,400italic');
 </style>
</defs><g fill="none" fill-rule="evenodd"><g fill-rule="nonzero" transform="translate(4 2)"><path d="m29.3800177 23.2274257 1.5566502.8831033c1.4133355.8017994 1.4188751 2.8198023.0099625 3.6292102l-13.8867925 7.9778393c-.6554705.376562-1.4642053.376562-2.1196758 0l-13.88679245-7.9778393c-1.40891265-.8094079-1.40337306-2.8274108.00996248-3.6292102l1.55665022-.8831033 11.88559915 6.8281715c.9253622.5316124 2.0634748.5316124 2.988837 0z" fill="#e5e5e5"/><path d="m29.3800177 15.2495864 1.5566502.8831032c1.4133355.8017994 1.4188751 2.8198024.0099625 3.6292102l-13.8867925 7.9778394c-.6554705.376562-1.4642053.376562-2.1196758 0l-13.88679245-7.9778394c-1.40891265-.8094078-1.40337306-2.8274108.00996248-3.6292102l1.55665022-.8831032 11.88559915 6.8281715c.9253622.5316124 2.0634748.5316124 2.988837 0z" fill="#e5e5e5"/><path d="m14.9501246.27673396c.6504003-.36897861 1.4493505-.36897861 2.0997508 0l13.8867925 7.87811634c1.4133355.8017994 1.4188751 2.8198024.0099625 3.6292102l-13.8867925 7.9778393c-.6554705.376562-1.4642053.376562-2.1196758 0l-13.88679245-7.9778393c-1.40891265-.8094078-1.40337306-2.8274108.00996248-3.6292102z" fill="#fcb327"/></g><g fill="#e5e5e5"><text font-family="Comfortaa-Regular, Comfortaa" font-size="19"><tspan x="46" y="21">oio.dev</tspan></text><text font-family="PingFangSC-Regular, PingFang SC" font-size="10" letter-spacing="1.818182"><tspan x="46" y="36">开发者网址导</tspan> <tspan letter-spacing="1.652893" x="116.909092" y="36">航</tspan></text></g></g></svg>