<svg
  width="40"
  height="40"
  viewBox="0 0 40 40"
  fill="none"
  xmlns="http://www.w3.org/2000/svg"
>
  <path
    d="M33.38 24.43L34.94 25.31C36.35 26.11 36.36 28.13 34.95 28.94L21.06 36.92C20.4 37.3 19.6 37.3 18.94 36.92L5.05 28.94C3.64 28.13 3.65 26.11 5.06 25.31L6.62 24.43L18.51 31.26C19.44 31.79 20.56 31.79 21.49 31.26L33.38 24.43Z"
    fill="#2C2E2F"
    fill-opacity="0.18"
  />
  <path
    d="M33.38 16.45L34.94 17.33C36.35 18.13 36.36 20.15 34.95 20.96L21.06 28.94C20.4 29.31 19.6 29.31 18.94 28.94L5.05 20.96C3.64 20.15 3.65 18.13 5.06 17.33L6.62 16.45L18.51 23.28C19.44 23.81 20.56 23.81 21.49 23.28L33.38 16.45Z"
    fill="#2C2E2F"
    fill-opacity="0.42"
  />
  <path
    d="M18.95 1.28C19.6 0.91 20.4 0.91 21.05 1.28L34.94 9.16C36.35 9.96 36.36 11.98 34.95 12.79L21.06 20.76C20.4 21.14 19.6 21.14 18.94 20.76L5.05 12.79C3.64 11.98 3.65 9.96 5.06 9.16L18.95 1.28Z"
    fill="#FCB327"
  />
</svg>
