<?xml version="1.0" standalone="no"?><!DOCTYPE svg PUBLIC "-//W3C//DTD SVG 1.1//EN" "http://www.w3.org/Graphics/SVG/1.1/DTD/svg11.dtd"><svg class="icon" height="512" viewBox="0 0 1024 1024" version="1.1" xmlns="http://www.w3.org/2000/svg"><path d="M980 456 618.4 100.8c-8-8-19.2-12.8-31.2-12.8L52 88C32 88 16 104 16 123.2L16 368l501.6 0c10.4 0 20.8 4 27.2 12l116.8 121.6c2.4 2.4 2.4 7.2 0 9.6L545.6 634.4C538.4 641.6 530.4 648 520 648L16 648l0 244.8c0 19.2 16 35.2 36 35.2l535.2 0c12 0 23.2-4.8 31.2-12.8l361.6-358.4C1008 528.8 1008 484 980 456z" /></svg>